<?xml version="1.0" encoding="UTF-8" standalone="no"?>
<svg
   viewBox="0 0 100 125"
   x="0px"
   y="0px"
   version="1.1"
   id="svg18"
   xmlns="http://www.w3.org/2000/svg"
   xmlns:svg="http://www.w3.org/2000/svg">
  <defs
     id="defs22" />
  <polygon
     points="93.15 41.43 74.13 10.42 50 10.42 25.87 10.42 6.85 41.43 50 41.43 93.15 41.43"
     id="polygon2"
     style="fill:#ffcc00;fill-opacity:1" />
  <path
     d="M61.31,52.74c5.2,0,9.5-3.93,10.08-8.98h-20.15c.58,5.05,4.88,8.98,10.08,8.98Z"
     id="path4"
     style="fill:#ffcc00;fill-opacity:1" />
  <path
     d="M83.92,52.74c5.2,0,9.5-3.93,10.08-8.98h-20.15c.58,5.05,4.88,8.98,10.08,8.98Z"
     id="path6"
     style="fill:#ffcc00;fill-opacity:1" />
  <path
     d="M72.62,47.85c-1.99,4.26-6.31,7.21-11.31,7.21s-9.32-2.96-11.31-7.21c-1.99,4.26-6.31,7.21-11.31,7.21s-9.32-2.96-11.31-7.21c-1.99,4.26-6.31,7.21-11.31,7.21-2.95,0-5.66-1.03-7.8-2.74v37.25H91.72V52.32c-2.14,1.72-4.85,2.74-7.8,2.74-5,0-9.32-2.96-11.31-7.21ZM31.46,79.96H15.54c-.64,0-1.16-.52-1.16-1.16v-15.93c0-.64,.52-1.16,1.16-1.16h15.93c.64,0,1.16,.52,1.16,1.16v15.93c0,.64-.52,1.16-1.16,1.16Zm8.88,7.29v-24.38c0-.64,.52-1.16,1.16-1.16h16.98c.64,0,1.16,.52,1.16,1.16v24.38h-19.31Zm45.28-24.38v15.93c0,.64-.52,1.16-1.16,1.16h-15.93c-.64,0-1.16-.52-1.16-1.16v-15.93c0-.64,.52-1.16,1.16-1.16h15.93c.64,0,1.16,.52,1.16,1.16Z"
     id="path8"
     style="fill:#ffcc00;fill-opacity:1" />
  <path
     d="M16.08,52.74c5.2,0,9.5-3.93,10.08-8.98H6c.58,5.05,4.88,8.98,10.08,8.98Z"
     id="path10"
     style="fill:#ffcc00;fill-opacity:1" />
  <path
     d="M38.69,52.74c5.2,0,9.5-3.93,10.08-8.98H28.61c.58,5.05,4.88,8.98,10.08,8.98Z"
     id="path12"
     style="fill:#ffcc00;fill-opacity:1" />
</svg>
