<?xml version="1.0" encoding="UTF-8" standalone="no"?>
<svg
   version="1.1"
   viewBox="-5.0 -10.0 110.0 135.0"
   id="svg8"
   xmlns="http://www.w3.org/2000/svg"
   xmlns:svg="http://www.w3.org/2000/svg">
  <defs
     id="defs12" />
  <path
     d="m88.562 65.281h-12.863v-3.5625h10.375v-31.953h-24.406l-1.7578 5.8828-14.75-15.082c0.074219-0.42188 0.12109-0.85156 0.12109-1.2969 0-4.1016-3.3242-7.4297-7.4297-7.4297-3.2852 0-6.0664 2.1328-7.0469 5.0859l-26.207 5.1758-4.5977 29.598 3.8906 11.555 14.738 2.0273 9.1953-17.355-2.3594-0.70703-3.7734 6.25-13.301-1.0859 4.3398-24.621 20.102-3.0195c1.3203 1.2109 3.0781 1.957 5.0156 1.957 0.65234 0 1.2852-0.09375 1.8867-0.25l16.496 21.504-2.1055 7.0469h-2.0078v-7.7812h-3.1836v14.504h11.91v3.5625l-32.484-0.003906c-6.3164 0-11.438 5.1211-11.438 11.438s5.1211 11.438 11.438 11.438h60.207c6.3164 0 11.438-5.1211 11.438-11.438s-5.1211-11.438-11.438-11.438zm-24.891-27.438h18.039v6.0117h-18.039z"
     id="path2"
     style="fill:#aa0000;fill-opacity:1" />
</svg>
