<?xml version="1.0" encoding="UTF-8" standalone="no"?>
<svg
   version="1.1"
   viewBox="-5.0 -10.0 110.0 135.0"
   id="svg8"
   xmlns="http://www.w3.org/2000/svg"
   xmlns:svg="http://www.w3.org/2000/svg">
  <defs
     id="defs12" />
  <path
     d="m91.652 41.16-37.496-33.332c-2.3672-2.1055-5.9375-2.1055-8.3086 0l-37.5 33.332c-1.3359 1.1875-2.0977 2.8867-2.0977 4.6719v44.672c0 1.793 1.4531 3.2461 3.2461 3.2461h7.0977v-25.75h66.812v25.75h7.0977c1.793 0 3.2461-1.4531 3.2461-3.2461v-44.672c0-1.7852-0.76562-3.4883-2.0977-4.6719zm-62.582-9.543c1.6406-2.3516 4.4766-3.8047 7.6289-3.4727 2.7773 0.28906 5.1719 2.0156 6.418 4.4102h13.766c1.2461-2.3906 3.6406-4.1172 6.418-4.4102 3.1523-0.32812 5.9883 1.125 7.6289 3.4727 0.25781 0.36719 0 0.875-0.44531 0.875h-5.2852c-0.39844 0-0.77734 0.1875-1.0195 0.5l-2.1016 2.7344c-0.27344 0.35156-0.27344 0.84375 0 1.1992l2.1016 2.7344c0.24219 0.31641 0.62109 0.5 1.0195 0.5h5.2891c0.45312 0 0.70312 0.51172 0.44141 0.88281-1.4883 2.125-3.9492 3.5156-6.7383 3.5156-3.1836 0-5.9336-1.8125-7.3008-4.457h-13.773c-1.3672 2.6445-4.1172 4.457-7.3008 4.457-2.7891 0-5.25-1.3906-6.7383-3.5156-0.25781-0.37109-0.007813-0.87891 0.44141-0.87891h5.2891c0.39844 0 0.77734-0.1875 1.0195-0.5l2.1016-2.7344c0.27344-0.35156 0.27344-0.84375 0-1.1992l-2.1016-2.7344c-0.24219-0.31641-0.62109-0.5-1.0195-0.5h-5.2852c-0.44922 0-0.70313-0.50781-0.44531-0.875zm-8.1172 18.617h58.094c2.4062 0 4.3594 1.9531 4.3594 4.375v2.1562h-66.812v-2.1562c0-2.4219 1.9531-4.375 4.3594-4.375zm-4.3594 14.641v-4.9844h66.812v4.9844z"
     id="path2"
     style="fill:#007ed4;fill-opacity:1" />
</svg>
