<?xml version="1.0" encoding="UTF-8" standalone="no"?>
<svg
   version="1.1"
   viewBox="-5.0 -10.0 110.0 135.0"
   id="svg8"
   sodipodi:docname="coin-red.svg"
   inkscape:version="1.2.2 (b0a8486541, 2022-12-01)"
   xmlns:inkscape="http://www.inkscape.org/namespaces/inkscape"
   xmlns:sodipodi="http://sodipodi.sourceforge.net/DTD/sodipodi-0.dtd"
   xmlns="http://www.w3.org/2000/svg"
   xmlns:svg="http://www.w3.org/2000/svg">
  <defs
     id="defs12" />
  <sodipodi:namedview
     id="namedview10"
     pagecolor="#ffffff"
     bordercolor="#000000"
     borderopacity="0.25"
     inkscape:showpageshadow="2"
     inkscape:pageopacity="0.0"
     inkscape:pagecheckerboard="0"
     inkscape:deskcolor="#d1d1d1"
     showgrid="false"
     inkscape:zoom="9.8890193"
     inkscape:cx="62.392436"
     inkscape:cy="58.650912"
     inkscape:window-width="1920"
     inkscape:window-height="1145"
     inkscape:window-x="0"
     inkscape:window-y="31"
     inkscape:window-maximized="1"
     inkscape:current-layer="svg8" />
  <g
     inkscape:groupmode="layer"
     id="layer2"
     inkscape:label="Layer 2">
    <path
       d="m 28.589929,44.032725 c 6.5,1.8984 15.398,3.1992 25.301,3.6016 h 0.10156 c 0.89844,0 1.8008,0.10156 2.8008,0.10156 h 0.10156 c 11.102,0.30078 21.102,-0.69922 28.398,-2.3984 6.6992,-1.6016 10.801004,-3.6992 10.898004,-5.8984 0,-2.1992 -4.000004,-4.3984 -10.602004,-6.398399 -7.1016,-2.1016 -17.102,-3.499999 -28.102,-3.699199 h -0.10156 c -11.102,-0.30078 -21.102,0.699219 -28.398,2.398399 -6.8008,1.6914 -10.898001,3.691399 -11.000001,5.890599 0,2.1992 4.000001,4.5 10.602001,6.4023 z"
       id="path315-3"
       style="fill:#ffffff" />
    <path
       d="m 28.764754,33.775823 c 6.48319,2.687007 15.358179,4.528169 25.235569,5.097729 h 0.101297 c 0.896116,0 1.796143,0.143747 2.793557,0.143747 h 0.101297 c 11.073289,0.425727 21.047428,-0.98968 28.324559,-3.39471 6.681875,-2.266914 10.773071,-5.23587 10.86982,-8.348633 0,-3.11276 -3.989659,-6.225523 -10.574585,-9.056335 -7.083235,-2.974617 -17.057772,-4.953919 -28.029325,-5.235869 h -0.101297 c -11.073289,-0.425726 -21.047428,0.989679 -28.324559,3.394709 -6.783213,2.394018 -10.869818,5.22483 -10.971554,8.337592 0,3.112761 3.989656,6.369327 10.574583,9.061856 z"
       id="path993"
       style="fill:#ffffff;stroke-width:1.18817" />
    <rect
       style="fill:#ffffff"
       id="rect1095"
       width="44.797153"
       height="14.359363"
       x="18.25812"
       y="18.920965" />
    <rect
       style="fill:#ffffff"
       id="rect1097"
       width="32.055759"
       height="12.943651"
       x="64.066505"
       y="20.741167"
       ry="0.80897808" />
    <rect
       style="fill:#ffffff"
       id="rect1169"
       width="22.752512"
       height="7.483047"
       x="17.954754"
       y="29.943293"
       ry="0.80897808" />
    <rect
       style="fill:#ffffff"
       id="rect1171"
       width="20.831177"
       height="7.8875351"
       x="75.189957"
       y="30.347784"
       ry="0.80897808" />
  </g>
  <g
     inkscape:groupmode="layer"
     id="layer1"
     inkscape:label="Layer 1">
    <path
       id="path299"
       d="m 18,33.301 v 0.19922 c 0.5,2.8984 4.8008,5.1992 10.301,6.8008 l 0.39844,-11.699 C 28.50022,28.50046 28.301,28.50046 28.00022,28.4028 c -4.3008,-1.1992 -7.6016,-2.6992 -9.8008,-4.5 l -0.19922,8.6016 v 0.10156 c -0.10156,0.39453 -0.10156,0.49609 0,0.69531 z m 16.3,8.5983 c 2,0.39844 3.8984,0.80078 5.8984,1.1016 l 0.39844,-11.898 c -3.1992,-0.39844 -6.1992,-1 -8.8008,-1.6016 l -0.39844,11.699 c 0.90234,0.30078 1.9023,0.5 2.9023,0.69922 z m 41.801,1.7031 0.39844,-12.102 c -2.8008,0.30078 -5.8008,0.60156 -8.8984,0.69922 l -0.39844,12.301 c 3.0977,-0.19922 6.0977,-0.5 8.8984,-0.89844 z m 3.5,-12.5 -0.39844,12 c 1.3984,-0.30078 2.6992,-0.5 4,-0.89844 h 0.10156 c 0.60156,-0.10156 1.1992,-0.30078 1.6992,-0.5 6.6992,-1.8984 10.898,-4.3984 11,-7.1016 l 0.19922,-8.8008 c -2.3008,1.6016 -5.6992,3 -10,4 -2.1016,0.5 -4.3047,0.89844 -6.6016,1.3008 z m -22.902,13.598 c 2.5,0.10156 5,0 7.3984,0 l 0.39844,-12.301 c -2.3984,0.10156 -4.8984,0.10156 -7.5,0 h -0.19922 -1.3008 l -0.39844,12.301 c 0.5,0 1,0 1.3984,0.10156 0.10547,-0.10156 0.10547,-0.10156 0.20312,-0.10156 z m -4.5977,-0.30078 0.39844,-12.199 c -3.1016,-0.19922 -6,-0.39844 -8.8984,-0.69922 l -0.39844,12 c 3.2969,0.39844 6.3984,0.69922 8.8984,0.89844 z m -23.301,-18.797 c 6.5,1.8984 15.398,3.1992 25.301,3.6016 h 0.10156 c 0.89844,0 1.8008,0.10156 2.8008,0.10156 h 0.10156 c 11.102,0.30078 21.102,-0.69922 28.398,-2.3984 6.6992,-1.6016 10.801,-3.6992 10.898,-5.8984 0,-2.1992 -4,-4.3984 -10.602,-6.3984 -7.1016,-2.1016 -17.102,-3.5 -28.102,-3.6992 h -0.10156 c -11.102,-0.30078 -21.102,0.69922 -28.398,2.3984 -6.8008,1.6914 -10.898,3.6914 -11,5.8906 0,2.1992 4,4.5 10.602,6.4023 z"
       style="fill:#aa0000;fill-opacity:1" />
  </g>
</svg>
