<?xml version="1.0" encoding="UTF-8" standalone="no"?>
<svg
   data-name="Layer 1"
   viewBox="0 0 93 116.25"
   x="0px"
   y="0px"
   version="1.1"
   id="svg14"
   xmlns="http://www.w3.org/2000/svg"
   xmlns:svg="http://www.w3.org/2000/svg"
   xmlns:rdf="http://www.w3.org/1999/02/22-rdf-syntax-ns#"
   xmlns:cc="http://creativecommons.org/ns#"
   xmlns:dc="http://purl.org/dc/elements/1.1/">
  <defs
     id="defs4">
    <style
       id="style2">.cls-1{fill-rule:evenodd;}</style>
  </defs>
  <title
     id="title6">a</title>
  <path
     class="cls-1"
     d="M35.141,34.235a1.406,1.406,0,0,1-1.406,1.406h-19.2a1.406,1.406,0,0,1-1.407-1.406V28.862a1.407,1.407,0,0,1,1.407-1.407h19.2a1.407,1.407,0,0,1,1.406,1.407v5.373Zm9.953,8.105V56.771a7.817,7.817,0,0,0-6.266,6.265H16.974a7.8,7.8,0,1,0,0,2.812H38.828a7.8,7.8,0,0,0,15.345,0H76.026a7.8,7.8,0,1,0,0-2.812H54.173a7.819,7.819,0,0,0-6.266-6.265V42.34H88.688V20.757H4.312V42.34Zm26.575-8.105V28.862a1.407,1.407,0,0,1,1.405-1.407h5.395a1.406,1.406,0,0,1,1.407,1.407v5.373a1.406,1.406,0,0,1-1.407,1.406H73.074a1.406,1.406,0,0,1-1.405-1.406Zm-10.787,0V28.862a1.407,1.407,0,0,1,1.407-1.407h5.392a1.406,1.406,0,0,1,1.407,1.407v5.373a1.406,1.406,0,0,1-1.407,1.406H62.289a1.406,1.406,0,0,1-1.407-1.406ZM32.329,32.828v-2.56H15.938v2.56Zm20.579-2.56h2.58v2.56h-2.58v-2.56Zm10.787,0h2.581v2.56H63.7v-2.56Zm10.786,0h2.583v2.56H74.481v-2.56ZM51.5,35.641a1.407,1.407,0,0,1-1.407-1.406V28.862A1.408,1.408,0,0,1,51.5,27.455h5.393A1.407,1.407,0,0,1,58.3,28.862v5.373a1.406,1.406,0,0,1-1.407,1.406Z"
     id="path8" />
  <metadata
     id="metadata869">
    <rdf:RDF>
      <cc:Work
         rdf:about="">
        <dc:title>a</dc:title>
      </cc:Work>
    </rdf:RDF>
  </metadata>
</svg>
