<?xml version="1.0" encoding="UTF-8" standalone="no"?>
<svg
   version="1.1"
   x="0px"
   y="0px"
   viewBox="0 0 700 875"
   style="enable-background:new 0 0 700 700;"
   xml:space="preserve"
   id="svg8"
   sodipodi:docname="map-location-icon1.svg"
   inkscape:version="1.2.2 (b0a8486541, 2022-12-01)"
   xmlns:inkscape="http://www.inkscape.org/namespaces/inkscape"
   xmlns:sodipodi="http://sodipodi.sourceforge.net/DTD/sodipodi-0.dtd"
   xmlns="http://www.w3.org/2000/svg"
   xmlns:svg="http://www.w3.org/2000/svg"><defs
     id="defs12" /><sodipodi:namedview
     id="namedview10"
     pagecolor="#ffffff"
     bordercolor="#000000"
     borderopacity="0.25"
     inkscape:showpageshadow="2"
     inkscape:pageopacity="0.0"
     inkscape:pagecheckerboard="0"
     inkscape:deskcolor="#d1d1d1"
     showgrid="false"
     inkscape:zoom="0.7628672"
     inkscape:cx="102.24584"
     inkscape:cy="474.52558"
     inkscape:window-width="1920"
     inkscape:window-height="1145"
     inkscape:window-x="0"
     inkscape:window-y="31"
     inkscape:window-maximized="1"
     inkscape:current-layer="svg8" /><path
     d="M474.2,172.3C444.5,133.2,399,111,350,111s-94.5,22.2-124.2,61.2C187.3,222.8,183.6,291,214.5,345  c2.5,4.3,75.6,145.2,113.3,223.3c13.2,27.4,30.9,27.6,44,0.6C409.5,491,483,349.3,485.5,345C516.4,291,512.7,222.8,474.2,172.3  L474.2,172.3z M350,181.6c44.9,0,81.7,36.7,81.7,81.7S394.9,345,350,345s-81.7-36.7-81.7-81.7S305.1,181.6,350,181.6L350,181.6z"
     id="path2" /></svg>
