<?xml version="1.0" encoding="UTF-8" standalone="no"?>
<svg
   version="1.1"
   x="0px"
   y="0px"
   viewBox="0 0 700 875"
   style="enable-background:new 0 0 700 700;"
   xml:space="preserve"
   id="svg10"
   sodipodi:docname="map-location-icon2.svg"
   inkscape:version="1.2.2 (b0a8486541, 2022-12-01)"
   xmlns:inkscape="http://www.inkscape.org/namespaces/inkscape"
   xmlns:sodipodi="http://sodipodi.sourceforge.net/DTD/sodipodi-0.dtd"
   xmlns="http://www.w3.org/2000/svg"
   xmlns:svg="http://www.w3.org/2000/svg"><defs
     id="defs14" /><sodipodi:namedview
     id="namedview12"
     pagecolor="#ffffff"
     bordercolor="#000000"
     borderopacity="0.25"
     inkscape:showpageshadow="2"
     inkscape:pageopacity="0.0"
     inkscape:pagecheckerboard="0"
     inkscape:deskcolor="#d1d1d1"
     showgrid="false"
     inkscape:zoom="0.7628672"
     inkscape:cx="137.63863"
     inkscape:cy="550.55454"
     inkscape:window-width="1920"
     inkscape:window-height="1145"
     inkscape:window-x="0"
     inkscape:window-y="31"
     inkscape:window-maximized="1"
     inkscape:current-layer="svg10" /><path
     d="M467,115.7c-29.1-29.1-69-47.4-112.5-47.4c-43.7,0-83.5,18.7-112.5,48c-29.3,29.7-47.6,70.5-47.6,113.9  c0,15.5,2.4,30.6,7.2,45c4.6,13.9,11.3,27.2,20.2,39.5l117.7,172c1.3,1.9,2.9,3.6,4.9,5c8.2,5.6,19.5,3.5,25.1-4.7l116.6-170.5  c9.1-13.1,16.2-27.3,21-42.2c4.7-14.7,7.3-30.1,7.3-45.9C514.3,184.9,496.1,144.9,467,115.7L467,115.7z M354.3,141  c47.6,0,86.2,38.6,86.2,86.2s-38.6,86.2-86.2,86.2s-86.2-38.6-86.2-86.2S306.7,141,354.3,141z"
     id="path2" /><ellipse
     cx="354.4"
     cy="575.4"
     rx="147.4"
     ry="56.3"
     id="ellipse4" /></svg>
