<?xml version="1.0" encoding="UTF-8" standalone="no"?>
<svg
   version="1.1"
   viewBox="-5.0 -10.0 110.0 135.0"
   id="svg8"
   xmlns="http://www.w3.org/2000/svg"
   xmlns:svg="http://www.w3.org/2000/svg">
  <defs
     id="defs12" />
  <path
     d="m51.656 35.637 5.8438-5.8477 4.2383-4.2344c-1.2109-5.4258 0.28906-11.34 4.5117-15.559 6.5547-6.5547 17.199-6.5547 23.754 0 6.5547 6.5547 6.5547 17.199 0 23.754-4.2188 4.2188-10.133 5.7227-15.559 4.5117l-10.086 10.086-12.703-12.707zm34.238-20.68c-0.10547-0.41797-0.43359-0.74609-0.85156-0.85156l-8.8398-2.2109c-0.39844-0.10156-0.82031 0.015625-1.1133 0.30859l-6.6289 6.6289c-0.29297 0.29297-0.40625 0.71484-0.30859 1.1133l2.2109 8.8398c0.10547 0.41797 0.43359 0.74609 0.85156 0.85156l8.8398 2.2109c0.39844 0.097656 0.82031-0.015625 1.1133-0.30859l6.6289-6.6289c0.28906-0.29297 0.40625-0.71484 0.30859-1.1133zm-37.551 49.406-5.8438 5.8477-4.2383 4.2344c1.2109 5.4258-0.28906 11.34-4.5117 15.559-6.5547 6.5547-17.199 6.5547-23.754 0-6.5547-6.5547-6.5547-17.199 0-23.754 4.2188-4.2188 10.133-5.7227 15.559-4.5117l10.086-10.086 12.703 12.707zm-34.238 20.68c0.10547 0.41797 0.43359 0.74609 0.85156 0.85156l8.8398 2.2109c0.39844 0.10156 0.82031-0.015625 1.1133-0.30859l6.6289-6.6289c0.29297-0.29297 0.40625-0.71484 0.30859-1.1133l-2.2109-8.8398c-0.10547-0.41797-0.43359-0.74609-0.85156-0.85156l-8.8398-2.2109c-0.39844-0.097656-0.82031 0.015625-1.1133 0.30859l-6.6289 6.6289c-0.28906 0.29297-0.40625 0.71484-0.30859 1.1133zm-4.1094-51.293c-5.3125-5.3125-6.3203-13.312-3.0195-19.645 0.054688-0.10547 0.125-0.20312 0.21094-0.28906 0.35938-0.35938 0.91797-0.44531 1.3711-0.21094 0.10547 0.054687 0.20312 0.125 0.28516 0.21094l9.4375 9.4375c1.3711 1.3711 3.5977 1.3711 4.9688 0l0.003906-0.003906c0.65625-0.65625 1.0273-1.5508 1.0273-2.4844 0-0.92969-0.37109-1.8242-1.0312-2.4844l-9.4375-9.4375c-0.085938-0.085938-0.15625-0.17969-0.21094-0.28516-0.23437-0.45312-0.14844-1.0078 0.21094-1.3711 0.085938-0.085938 0.17969-0.15625 0.28906-0.21094 6.332-3.3008 14.332-2.2969 19.645 3.0195 4.2188 4.2188 5.7227 10.133 4.5117 15.559l36.188 36.188c5.4258-1.2109 11.34 0.28906 15.559 4.5117 5.3125 5.3125 6.3203 13.312 3.0195 19.645-0.054688 0.10547-0.125 0.20312-0.21094 0.28906-0.35938 0.35938-0.91797 0.44531-1.3711 0.21094-0.10547-0.054688-0.20312-0.125-0.28516-0.21094l-9.4375-9.4375c-1.3711-1.3711-3.5977-1.3711-4.9688 0l-0.003906 0.003906c-0.65625 0.65625-1.0273 1.5547-1.0273 2.4844 0 0.92969 0.37109 1.8242 1.0312 2.4844l9.4375 9.4375c0.085938 0.085938 0.15625 0.17969 0.21094 0.28516 0.23437 0.45313 0.14844 1.0078-0.21094 1.3711-0.085938 0.085938-0.17969 0.15625-0.28906 0.21094-6.332 3.3008-14.332 2.2969-19.645-3.0195-4.2188-4.2188-5.7227-10.133-4.5117-15.559l-36.188-36.188c-5.4258 1.2109-11.34-0.28906-15.559-4.5117z"
     fill-rule="evenodd"
     id="path2"
     style="fill:#007ed4;fill-opacity:1" />
</svg>
