<?xml version="1.0" encoding="UTF-8" standalone="no"?>
<svg
   version="1.1"
   viewBox="-5.0 -10.0 110.0 135.0"
   id="svg16"
   xmlns="http://www.w3.org/2000/svg"
   xmlns:svg="http://www.w3.org/2000/svg">
  <defs
     id="defs20" />
  <path
     d="m54.152 64.191h-29.395c-2.0508 0-3.6992 1.6523-3.6992 3.6992v10.332c0 2.0508 1.6523 3.6992 3.6992 3.6992h29.395c2.0508 0 3.6992-1.6523 3.6992-3.6992v-10.332c0-2.0508-1.6523-3.6992-3.6992-3.6992z"
     id="path2"
     style="fill:#aa0000;fill-opacity:1" />
  <path
     d="m36.793 55.164v-10.332c0-2.0508-1.6523-3.6992-3.6992-3.6992h-29.395c-2.0508 0-3.6992 1.6523-3.6992 3.6992v10.332c0 2.0508 1.6523 3.6992 3.6992 3.6992h29.395c2.0508 0 3.6992-1.6523 3.6992-3.6992z"
     id="path4"
     style="fill:#aa0000;fill-opacity:1" />
  <path
     d="m78.941 55.164v-10.332c0-2.0508-1.6523-3.6992-3.6992-3.6992h-29.395c-2.0508 0-3.6992 1.6523-3.6992 3.6992v10.332c0 2.0508 1.6523 3.6992 3.6992 3.6992h29.395c2.0508 0 3.6992-1.6523 3.6992-3.6992z"
     id="path6"
     style="fill:#aa0000;fill-opacity:1" />
  <path
     d="m24.762 35.809h29.395c2.0508 0 3.6992-1.6523 3.6992-3.6992v-10.332c0-2.0508-1.6523-3.6992-3.6992-3.6992h-29.395c-2.0508 0-3.6992 1.6523-3.6992 3.6992v10.332c0 2.0508 1.6523 3.6992 3.6992 3.6992z"
     id="path8"
     style="fill:#aa0000;fill-opacity:1" />
  <path
     d="m96.301 64.191h-29.395c-2.0508 0-3.6992 1.6523-3.6992 3.6992v10.332c0 2.0508 1.6523 3.6992 3.6992 3.6992h29.395c2.0508 0 3.6992-1.6523 3.6992-3.6992v-10.332c0-2.0508-1.6523-3.6992-3.6992-3.6992z"
     id="path10"
     style="fill:#aa0000;fill-opacity:1" />
</svg>
