<?xml version="1.0" encoding="UTF-8" standalone="no"?>
<svg
   version="1.1"
   viewBox="-5.0 -10.0 110.0 135.0"
   id="svg8"
   xmlns="http://www.w3.org/2000/svg"
   xmlns:svg="http://www.w3.org/2000/svg">
  <defs
     id="defs12" />
  <path
     d="m50.965 10.379c-0.8125-0.011718-1.7031 0.32422-2.2266 0.87891l-37.059 39.371c-0.23438 0.25-0.44531 0.51953-0.63672 0.80469l72.516-16.449c0.32422-0.074219 0.66406-0.015625 0.94531 0.16016 0.28125 0.17969 0.48047 0.46094 0.55078 0.78516 0.074218 0.32031 0.015624 0.66016-0.16016 0.94141s-0.45703 0.48047-0.78125 0.55469l-74.082 16.801c-0.019531 0.21484-0.03125 0.42969-0.03125 0.64453v8.9023c1.4883 0 2.9141 0.58984 3.9688 1.6406 1.0508 1.0547 1.6445 2.4805 1.6445 3.9688 0 1.4883-0.59375 2.9141-1.6445 3.9688-1.0547 1.0508-2.4805 1.6445-3.9688 1.6445v12.422c0 0.63281 0.27344 1.2344 0.74609 1.6523 0.47266 0.41797 1.1055 0.61328 1.7344 0.53516l75.168-9.3945c1.3438-0.16797 2.3516-1.3086 2.3516-2.6641v-41.098c0-0.84766-0.46875-2.0352-1.0625-2.6367-8.1641-8.2266-23.055-18.301-37.195-23.305-0.23828-0.085937-0.50391-0.125-0.77734-0.12891zm2.418 12.547c0.99609 0 1.9492 0.26172 2.6523 0.73047s1.0977 1.1055 1.0977 1.7695c0 0.66016-0.39453 1.2969-1.0977 1.7656s-1.6562 0.73438-2.6523 0.73438c-2.0703 0-3.75-1.1211-3.75-2.5 0-1.3828 1.6797-2.5 3.75-2.5zm-14.582 11.469c1.7266 0 3.125 0.93359 3.125 2.082 0 0.55469-0.32812 1.082-0.91406 1.4727-0.58594 0.39062-1.3789 0.61328-2.2109 0.61328-0.82812 0-1.6211-0.22266-2.207-0.61328s-0.91797-0.91797-0.91797-1.4727c0.003907-1.1484 1.4023-2.082 3.125-2.082zm32.031 12.188c1.3281 0 2.6016 0.52734 3.5391 1.4648s1.4609 2.2109 1.4609 3.5352c0 1.3281-0.52344 2.5977-1.4609 3.5352s-2.2109 1.4648-3.5391 1.4648c-2.7578 0-5-2.2383-5-5s2.2422-5 5-5zm-34.48 10.312c0.99609 0 1.9492 0.39453 2.6523 1.0977 0.70312 0.70312 1.0977 1.6602 1.0977 2.6523 0 0.99609-0.39453 1.9492-1.0977 2.6523s-1.6562 1.0977-2.6523 1.0977c-2.0703 0-3.75-1.6797-3.75-3.75 0-2.0703 1.6797-3.75 3.75-3.75zm19.789 8.0195 0.003906 0.003907c1.3242 0 2.5977 0.52344 3.5352 1.4648 0.9375 0.9375 1.4648 2.207 1.4648 3.5352 0 1.3242-0.52734 2.5977-1.4648 3.5352s-2.2109 1.4648-3.5352 1.4648c-2.7617 0-5-2.2383-5-5s2.2383-5 5-5zm23.648 4.6875v0.003907c0.66406 0 1.3008 0.26172 1.7695 0.73047s0.73047 1.1055 0.73047 1.7695c0 0.66016-0.26172 1.2969-0.73047 1.7656s-1.1055 0.73438-1.7695 0.73438c-1.3789 0-2.5-1.1211-2.5-2.5 0-1.3828 1.1211-2.5 2.5-2.5zm-50.844 5.9375 0.003907 0.003907c0.79688 0 1.5664 0.31641 2.1289 0.87891 0.56641 0.56641 0.88281 1.332 0.88281 2.1328 0 0.79687-0.31641 1.5625-0.88281 2.1289-0.5625 0.5625-1.332 0.88281-2.1289 0.88281-1.6641-0.003906-3.0117-1.3516-3.0117-3.0117 0-1.6641 1.3477-3.0117 3.0117-3.0117z"
     id="path2"
     style="fill:#ffcc00" />
</svg>
