<?xml version="1.0" encoding="UTF-8" standalone="no"?>
<svg
   version="1.1"
   x="0px"
   y="0px"
   viewBox="0 0 100 125"
   xml:space="preserve"
   id="svg1596"
   xmlns="http://www.w3.org/2000/svg"
   xmlns:svg="http://www.w3.org/2000/svg"><defs
     id="defs1600" /><g
     id="g1590"><g
       id="g1588"><path
         d="M67.021,55.719l-1.632-1.558c-0.375-0.356-0.869-0.553-1.381-0.553c-0.082,0-0.165,0.005-0.248,0.016    c-0.596,0.074-1.127,0.413-1.446,0.922l-5.483,8.743c-2.068,0.549-4.381,0.865-6.833,0.865c-2.449,0-4.759-0.316-6.826-0.863    l-5.484-8.745c-0.319-0.509-0.85-0.848-1.446-0.922c-0.083-0.011-0.166-0.016-0.248-0.016c-0.511,0-1.006,0.195-1.38,0.553    l-1.632,1.558c-12.598,1.047-22.287,0.724-22.287,25.726C10.693,94.362,20.135,95,32.496,95c1.347,0,2.73-0.009,4.142-0.009    h26.724c1.406,0,2.791,0.009,4.141,0.009c12.361,0,21.805-0.636,21.805-13.556C89.307,56.444,79.615,56.764,67.021,55.719z     M35.993,55.608L50,77.944l14.008-22.336l12.258,11.695H62.857L50,78.956L37.144,67.304H23.734L35.993,55.608z"
         id="path1584" /><path
         d="M29.803,29.479c0.014,0.191,0.031,0.381,0.049,0.568c1.289,14.408,9.815,25.539,20.147,25.539    c10.329,0,18.86-11.131,20.149-25.539c0.018-0.188,0.033-0.377,0.049-0.568c0.091-0.625,0.152-1.257,0.189-1.898    c0.025-0.439,0.043-0.879,0.043-1.327c0-1.095-0.08-2.173-0.232-3.226C68.703,12.821,60.229,5,49.999,5    s-18.702,7.821-20.196,18.028c-0.154,1.053-0.232,2.131-0.232,3.226c0,0.448,0.018,0.888,0.041,1.327    C29.65,28.223,29.712,28.854,29.803,29.479z M37.398,18.019c0,0,5.879,2.824,12.601,3.004c6.722-0.18,12.603-3.004,12.603-3.004    c4.262,1.662,2.24,13.504,2.24,13.504c1.066-0.732,2.041-1.115,2.836-1.311c-1.172,12.586-8.639,22.287-17.679,22.287    S33.494,42.798,32.32,30.212c0.795,0.195,1.771,0.578,2.836,1.313C35.156,31.524,33.137,19.681,37.398,18.019z"
         id="path1586" /></g></g></svg>
