<?xml version="1.0" encoding="UTF-8" standalone="no"?>
<svg
   version="1.1"
   x="0px"
   y="0px"
   viewBox="0 0 100 125"
   xml:space="preserve"
   id="svg2634"
   xmlns="http://www.w3.org/2000/svg"
   xmlns:svg="http://www.w3.org/2000/svg"><defs
     id="defs2638" /><g
     id="g2628"><path
       d="M77.504,57.707c-7.15-5.877-6.951-21.002-6.951-21.002C71.938,6.434,53.98,5,50.567,5c-0.356,0-0.554,0.017-0.554,0.017   l-0.014,0.052l-0.017-0.05c0,0-0.2-0.017-0.557-0.017c-3.412,0-21.367,1.43-19.981,31.703c0,0,0.196,15.126-6.954,21.004   c-6.773,1.929-11.224,7.115-11.224,23.933C11.266,94.372,20.57,95,32.751,95c1.328,0,2.691-0.009,4.082-0.009h26.333   c1.385,0,2.75,0.009,4.08,0.009c12.182,0,21.488-0.626,21.488-13.358C88.734,64.821,84.279,59.636,77.504,57.707z M39.04,53.699   c3.122,3.118,6.892,4.94,10.955,4.94c3.974,0,7.665-1.742,10.741-4.727l-2.271,4.727l1.613-0.226l-3.348,5.338   c-2.039,0.54-4.316,0.853-6.733,0.853c-2.414,0-4.69-0.312-6.727-0.852l-2.404-3.833c0.67,0.289,1.179,0.63,1.432,1.043   L39.04,53.699z M37.332,67.708H24.117l12.081-11.525L50,78.193l13.803-22.011l12.08,11.525H62.67L50,79.19L37.332,67.708z    M43.986,31.319c0,0,7.389-2.465,16.414-8.969c0.045-0.031,0.092-0.06,0.133-0.096c0,0,0.162,0.235,0.395,0.631   c0.781,1.341,2.457,5.341-0.713,7.173l5.777,0.733H66.1l1.059,0.196c-0.016,0.837-0.074,1.661-0.193,2.467   c-0.336,4.425-1.457,8.501-3.164,11.921c-3.102,6.225-8.127,10.268-13.802,10.268c-8.649,0-15.799-9.399-16.919-21.586   C33.078,34.062,39.906,32.93,43.986,31.319z"
       id="path2626" /></g></svg>
