<?xml version="1.0" encoding="UTF-8" standalone="no"?>
<svg
   version="1.1"
   x="0px"
   y="0px"
   viewBox="0 0 100 125"
   xml:space="preserve"
   id="svg2117"
   xmlns="http://www.w3.org/2000/svg"
   xmlns:svg="http://www.w3.org/2000/svg"><defs
     id="defs2121" /><g
     id="g2111"><g
       id="g2109"><path
         d="M66.494,57.22l-1.639-1.563c-0.373-0.357-0.869-0.553-1.38-0.553c-0.083,0-0.165,0.005-0.248,0.016    c-0.597,0.074-1.128,0.413-1.446,0.922l-5.318,8.481c-1.963,0.51-4.149,0.804-6.466,0.804c-2.313,0-4.497-0.293-6.458-0.803    l-5.319-8.482c-0.319-0.509-0.85-0.848-1.446-0.922c-0.083-0.011-0.166-0.016-0.248-0.016c-0.511,0-1.006,0.195-1.38,0.553    l-1.638,1.563c-12.061,0.994-21.321,0.766-21.321,24.739C12.186,94.387,21.268,95,33.16,95c1.297,0,2.629-0.01,3.985-0.01h25.708    c1.354,0,2.686,0.01,3.982,0.01c11.893,0,20.979-0.611,20.979-13.041C87.814,57.987,78.552,58.212,66.494,57.22z M36.525,57.104    L50,78.592l13.476-21.488L75.27,68.355h-12.9L50,79.564L37.631,68.355h-12.9L36.525,57.104z"
         id="path2105" /><path
         d="M28.492,32.689c0.008,0.15,0.021,0.309,0.034,0.463c0.004,0.043,0.005,0.084,0.009,0.126    c0.037,0.405,0.092,0.823,0.166,1.246c0.069,0.39,0.151,0.766,0.242,1.126c0.034,0.131,0.074,0.25,0.111,0.378    c0.063,0.222,0.123,0.446,0.193,0.653c0.056,0.164,0.116,0.314,0.174,0.47c0.062,0.158,0.119,0.321,0.184,0.468    c0.066,0.153,0.137,0.291,0.206,0.434c0.066,0.134,0.13,0.273,0.198,0.397c0.072,0.128,0.145,0.239,0.219,0.353    c0.073,0.12,0.147,0.24,0.223,0.346c0.072,0.1,0.145,0.183,0.219,0.271c0.082,0.098,0.164,0.199,0.248,0.281    c0.07,0.07,0.14,0.123,0.21,0.184c0.091,0.073,0.181,0.145,0.271,0.197c0.067,0.045,0.135,0.071,0.202,0.102    c0.062,0.027,0.123,0.07,0.184,0.089c1.608,4.419,4.162,8.726,7.31,11.909c1.875,1.898,3.969,3.398,6.202,4.301    c1.483,0.596,3.034,0.927,4.62,0.927c0.027,0,0.057-0.005,0.084-0.005s0.057,0.005,0.084,0.005c1.588,0,3.137-0.331,4.62-0.927    c2.233-0.902,4.327-2.402,6.202-4.301c3.146-3.184,5.701-7.49,7.31-11.909c0.061-0.019,0.122-0.062,0.184-0.089    c0.067-0.03,0.135-0.057,0.202-0.102c0.09-0.053,0.18-0.124,0.271-0.197c0.07-0.061,0.14-0.113,0.21-0.184    c0.084-0.082,0.167-0.184,0.249-0.281c0.073-0.089,0.146-0.172,0.218-0.271c0.075-0.105,0.15-0.226,0.223-0.346    c0.074-0.113,0.146-0.225,0.219-0.353c0.068-0.124,0.132-0.264,0.198-0.397c0.069-0.143,0.14-0.28,0.206-0.434    c0.064-0.146,0.122-0.308,0.182-0.468c0.06-0.155,0.12-0.306,0.176-0.47c0.07-0.207,0.132-0.434,0.193-0.655    c0.037-0.126,0.077-0.245,0.108-0.376c0.094-0.36,0.176-0.736,0.245-1.126c0.074-0.423,0.129-0.841,0.166-1.246    c0.004-0.042,0.005-0.083,0.009-0.126c0.014-0.154,0.026-0.313,0.034-0.463c0.002-0.068,0.004-0.132,0.006-0.2    c0.006-0.122,0.011-0.249,0.012-0.37c0-0.075-0.001-0.147-0.002-0.225c-0.001-0.107-0.002-0.218-0.008-0.327    c-0.002-0.075-0.006-0.149-0.01-0.224c-0.005-0.101-0.013-0.202-0.02-0.296c-0.006-0.081-0.016-0.155-0.023-0.233    c-0.01-0.089-0.02-0.175-0.031-0.26c-0.011-0.08-0.023-0.158-0.035-0.237c-0.014-0.071-0.027-0.147-0.04-0.218    c-0.017-0.083-0.034-0.162-0.053-0.242c-0.014-0.06-0.028-0.119-0.045-0.178c-0.021-0.085-0.045-0.168-0.069-0.244    c-0.016-0.047-0.031-0.092-0.045-0.137c-0.031-0.082-0.061-0.165-0.094-0.242c-0.012-0.035-0.026-0.063-0.041-0.094    c-0.037-0.081-0.075-0.166-0.118-0.24c-0.011-0.02-0.02-0.037-0.03-0.057c-0.048-0.082-0.097-0.158-0.15-0.229    c-0.004-0.008-0.008-0.014-0.012-0.018c-0.181-0.24-0.387-0.41-0.617-0.498c0.047-0.799,0.076-1.607,0.072-2.432    c-0.029-11.862-6.893-19.697-17.71-20.432C51.607,5.002,50.799,4.992,50,5.004c-0.799-0.012-1.607-0.002-2.444,0.055    c-10.817,0.734-17.681,8.569-17.71,20.432c-0.004,0.824,0.025,1.633,0.072,2.432c-0.23,0.088-0.437,0.258-0.615,0.498    c-0.006,0.004-0.01,0.01-0.014,0.02c-0.055,0.068-0.104,0.145-0.15,0.227c-0.01,0.02-0.021,0.037-0.03,0.057    c-0.043,0.074-0.081,0.159-0.118,0.24c-0.015,0.031-0.029,0.059-0.041,0.094c-0.033,0.077-0.063,0.16-0.094,0.242    c-0.014,0.045-0.029,0.09-0.045,0.137c-0.024,0.076-0.048,0.159-0.069,0.244c-0.017,0.059-0.031,0.118-0.045,0.178    c-0.019,0.08-0.036,0.159-0.053,0.242c-0.013,0.07-0.026,0.146-0.04,0.218c-0.012,0.079-0.024,0.157-0.035,0.237    c-0.012,0.085-0.021,0.171-0.031,0.26c-0.008,0.078-0.018,0.152-0.023,0.233c-0.007,0.094-0.015,0.195-0.02,0.296    c-0.004,0.074-0.008,0.148-0.01,0.224c-0.006,0.109-0.007,0.222-0.008,0.331c-0.001,0.075-0.002,0.146-0.002,0.221    c0.001,0.121,0.006,0.248,0.012,0.372C28.488,32.56,28.488,32.623,28.492,32.689z M32.781,30.502    c0.057-0.027,0.121-0.053,0.184-0.061h0.002c0.045-0.008,0.1,0.004,0.15,0.012c0.004-0.002,0.006-0.006,0.012-0.006    c0.211-0.032,0.429,0.031,0.646,0.172c0.182-0.689,0.371-1.318,0.568-1.914c0.037-0.111,0.072-0.225,0.109-0.328    c0.04-0.124,0.083-0.248,0.13-0.377c0.036-0.104,0.075-0.195,0.112-0.293c0.312-0.775,0.734-1.605,1.324-2.366    c0.524-0.679,1.137-1.431,1.914-2.007c1.119-0.834,2.584-1.308,4.648-0.662c0,0,0.33,0.119,0.88,0.279    c1.252,0.361,3.716,0.935,6.538,0.873l6.79-0.87c2.441,0.093,4.116,1.376,5.868,2.2c-0.047-0.646-0.444-1.299-0.592-1.82    c0.778,0.576,1.39,1.328,1.914,2.007c0.59,0.761,1.013,1.591,1.324,2.366c0.037,0.098,0.075,0.188,0.111,0.291    c0.049,0.131,0.091,0.255,0.133,0.381c0.035,0.104,0.07,0.215,0.107,0.326c0.287,0.954,0.396,1.714,0.421,1.955    c0.001,0.018,0.003,0.039,0.003,0.059c0.002,0,0.002,0,0.002,0c0.047-0.037,0.094-0.068,0.143-0.1    c0.004,0.019,0.009,0.033,0.013,0.053c0,0.016,0,0.029,0,0.039c0.011-0.002,0.011-0.002,0.016-0.004v0.004l0.017-0.014    c0.126-0.1,0.256-0.177,0.384-0.219c0.067-0.027,0.136-0.018,0.204-0.023c0.008-0.002,0.018-0.002,0.025-0.002    c0.051-0.008,0.105-0.02,0.149-0.012h0.003c0.063,0.008,0.127,0.033,0.184,0.061c0.603,0.284,0.949,1.43,0.921,2.908    c-0.011,0.486-0.059,1.015-0.157,1.559c-0.023,0.145-0.059,0.268-0.094,0.408c-0.316,1.478-0.9,2.689-1.523,3.228    c-0.138,0.12-0.289,0.206-0.432,0.255c-0.108,0.037-0.215,0.05-0.324,0.041c-0.079,0.015-0.158,0.015-0.236-0.002    c-0.094-0.017-0.186-0.061-0.273-0.115c-1.504,4.684-4.338,9.334-7.908,12.171c-0.533,0.415-1.08,0.8-1.641,1.133    c-1.707,1.02-3.547,1.618-5.463,1.618c-0.029,0-0.059-0.004-0.088-0.006c-0.029,0.002-0.059,0.006-0.088,0.006    c-1.916,0-3.756-0.599-5.463-1.618c-0.561-0.333-1.107-0.718-1.641-1.133c-3.57-2.837-6.404-7.487-7.909-12.171    c-0.087,0.055-0.179,0.099-0.272,0.115c-0.078,0.017-0.157,0.017-0.236,0.002c-0.109,0.009-0.216-0.004-0.324-0.041    c-0.143-0.049-0.293-0.135-0.432-0.255c-0.623-0.538-1.207-1.75-1.523-3.228c-0.035-0.141-0.07-0.264-0.094-0.408    c-0.099-0.544-0.146-1.072-0.157-1.559C31.832,31.932,32.179,30.786,32.781,30.502z"
         id="path2107" /></g></g></svg>
